<svg xmlns="http://www.w3.org/2000/svg" viewBox="0 0 75 70" version="1.1"
     x="0px" y="0px">
  <g>
    <path style=""
          d="M 26.3125 51.574219 C 26.3125 56.644531 22.203125 60.753906 17.132812 60.753906 C 12.066406 60.753906 7.953125 56.644531 7.953125 51.574219 C 7.953125 46.503906 12.066406 42.394531 17.132812 42.394531 C 22.203125 42.394531 26.3125 46.503906 26.3125 51.574219 Z M 26.3125 51.574219 "
          stroke="none" fill-rule="nonzero" fill="rgb(0%,0%,0%)" fill-opacity="1"/>
    <path style=""
          d="M 46.234375 21.324219 C 46.234375 26.394531 42.125 30.503906 37.054688 30.503906 C 31.988281 30.503906 27.875 26.394531 27.875 21.324219 C 27.875 16.253906 31.988281 12.144531 37.054688 12.144531 C 42.125 12.144531 46.234375 16.253906 46.234375 21.324219 Z M 46.234375 21.324219 "
          stroke="none" fill-rule="nonzero" fill="rgb(0%,0%,0%)" fill-opacity="1"/>
    <path style=""
          d="M 67.640625 51.574219 C 67.640625 56.644531 63.53125 60.753906 58.460938 60.753906 C 53.394531 60.753906 49.28125 56.644531 49.28125 51.574219 C 49.28125 46.503906 53.394531 42.394531 58.460938 42.394531 C 63.53125 42.394531 67.640625 46.503906 67.640625 51.574219 Z M 67.640625 51.574219 "
          stroke="none" fill-rule="nonzero" fill="rgb(0%,0%,0%)" fill-opacity="1"/>
  </g>
</svg>
